# xmcd
#
# Track frame offsets:
#	150
#	14459
#	30090
#	40536
#	54039
#	66285
#	78318
#	94317
#	106868
#	115007
#	130273
#	143179
#	155240
#	167386
#	181204
#	193087
#	206623
#	222999
#	239863
#	253604
#
# Disc length: 3565 seconds
#
# Revision: 0
# Processed by: cddbd v1.5.2PL0 Copyright (c) Steve Scherf et al.
# Submitted via: audiograbber 1.83.01
#
DISCID=0f0deb14
DTITLE=Leo Dan - Lo Esencial De Leo Dan 3.3
DYEAR=1975
DGENRE=Ballad
TTITLE0=Mary Es Mi Amor
TTITLE1=Yo Se Que No Es Feliz
TTITLE2=Extraños (Como Poder Saber Si Te Amo)
TTITLE3=El Radio Esta Tocando Tu Cancion
TTITLE4=Pareces Una Nena
TTITLE5=Es Algo Extraño El Amor
TTITLE6=Tu Me Pides Que Te Olvide
TTITLE7=Juana
TTITLE8=Eres Tu Mi Chica
TTITLE9=Me Quedo La Costumbre
TTITLE10=Tu
TTITLE11=Me Desperte Llorando
TTITLE12=Cuando Un Amor Se Va
TTITLE13=Fueron Tres Años
TTITLE14=Mi Ultima Serenata
TTITLE15=Mi Barrio Es Tepito
TTITLE16=Toquen Mariachis Canten
TTITLE17=Pideme La Luna
TTITLE18=Con Nadie Me Compares
TTITLE19=Esa Pared
EXTD=MS®
EXTT0=MS®
EXTT1=
EXTT2=
EXTT3=
EXTT4=
EXTT5=
EXTT6=
EXTT7=
EXTT8=
EXTT9=
EXTT10=
EXTT11=
EXTT12=
EXTT13=
EXTT14=
EXTT15=
EXTT16=
EXTT17=
EXTT18=
EXTT19=
PLAYORDER=
